<?xml version="1.0" encoding="utf-8"?>
<!-- Generator: Adobe Illustrator 15.1.0, SVG Export Plug-In  -->
<!DOCTYPE svg PUBLIC "-//W3C//DTD SVG 1.1 Basic//EN" "http://www.w3.org/Graphics/SVG/1.1/DTD/svg11-basic.dtd" [
	<!ENTITY ns_flows "http://ns.adobe.com/Flows/1.0/">
]>
<svg version="1.1" baseProfile="basic"
	 xmlns="http://www.w3.org/2000/svg" xmlns:xlink="http://www.w3.org/1999/xlink" xmlns:a="http://ns.adobe.com/AdobeSVGViewerExtensions/3.0/"
	 x="0px" y="0px" width="300px" height="300px" viewBox="-74.06 -70.145 300 300"
	 overflow="visible" enable-background="new -74.06 -70.145 300 300" xml:space="preserve">
<defs>
</defs>
<path fill="#FFFFFF" stroke="#393A4D" stroke-width="4.7472" stroke-miterlimit="10" d="M79.897,157.338
	c-27.625,0-53.364-14.848-67.16-38.75C-8.621,81.59,4.1,34.111,41.09,12.749C53.774,5.429,68.368,1.826,82.944,2.441
	c3.453,0.142,6.559,2.149,8.104,5.243c1.543,3.094,1.283,6.783-0.678,9.631c-11.793,17.116-12.701,39.799-2.318,57.786
	c9.639,16.689,27.617,27.057,46.92,27.057c1.424,0,2.867-0.057,4.289-0.17c3.445-0.264,6.77,1.348,8.674,4.23
	c1.906,2.887,2.092,6.58,0.486,9.643c-6.809,12.99-17.129,23.742-29.85,31.084C106.795,153.744,93.426,157.338,79.897,157.338z
	 M66.287,22.948c-5.48,1.307-10.779,3.405-15.702,6.247C22.657,45.321,13.057,81.16,29.18,109.094
	c10.417,18.045,29.851,29.254,50.717,29.254c10.199,0,20.287-2.713,29.18-7.846c4.932-2.848,9.387-6.375,13.248-10.461
	c-21.084-3.721-39.836-16.6-50.716-35.443C60.705,65.709,59.017,42.989,66.287,22.948z"/>
</svg>
