<?xml version="1.0" encoding="utf-8"?>
<!-- Generator: Adobe Illustrator 15.1.0, SVG Export Plug-In  -->
<!DOCTYPE svg PUBLIC "-//W3C//DTD SVG 1.1 Basic//EN" "http://www.w3.org/Graphics/SVG/1.1/DTD/svg11-basic.dtd" [
	<!ENTITY ns_flows "http://ns.adobe.com/Flows/1.0/">
]>
<svg version="1.1" baseProfile="basic"
	 xmlns="http://www.w3.org/2000/svg" xmlns:xlink="http://www.w3.org/1999/xlink" xmlns:a="http://ns.adobe.com/AdobeSVGViewerExtensions/3.0/"
	 x="0px" y="0px" width="300px" height="300px" viewBox="-42.648 -56.947 300 300"
	 overflow="visible" enable-background="new -42.648 -56.947 300 300" xml:space="preserve">
<defs>
</defs>
<path fill="#FFFFFF" stroke="#B1C5C1" stroke-width="4.9607" stroke-miterlimit="10" d="M129.709,94.415h-2.803
	c-0.948-3.87-2.487-8.53-4.982-13.25c-8.134-15.347-22.71-23.797-41.036-23.797c-18.382,0-32.879,8.489-40.82,23.9
	c-2.573,4.992-4.069,9.922-4.941,13.917C15.774,98.711,2.48,113.992,2.48,134.088c0,20.254,14.252,36.041,34.155,39.127
	c1.021,0.354,2.12,0.549,3.261,0.549h89.812c23.576,0,41.358-17.059,41.358-39.676C171.067,111.1,153.675,94.415,129.709,94.415z
	 M129.709,153.92H43.838c-14.781,0-21.515-10.279-21.515-19.832c0-11.861,8.648-19.828,21.515-19.828
	c5.363,0,9.751-4.266,9.913-9.625c0.085-2.807,1.57-27.424,27.137-27.424c10.889,0,18.49,4.173,23.235,12.763
	c3.974,7.179,4.444,14.786,4.446,14.808c0.241,5.301,4.605,9.479,9.909,9.479h11.23c12.867,0,21.515,7.967,21.515,19.828
	C151.224,143.641,144.489,153.92,129.709,153.92z"/>
<path fill="#FFFFFF" stroke="#B1C5C1" stroke-width="2.4803" stroke-miterlimit="10" d="M225.771,83.055
	c-1.499-2.262-4.113-3.565-6.803-3.318c-16.324,1.308-32.196-7.02-40.382-21.209c-8.194-14.189-7.476-32.083,1.82-45.583
	c1.537-2.231,1.739-5.125,0.528-7.55c-1.211-2.422-3.647-3.997-6.357-4.108c-11.514-0.445-22.932,2.346-32.945,8.124
	c-13.899,8.028-23.937,20.958-28.255,36.413c-1.107,3.958,1.203,8.064,5.161,9.173c3.959,1.097,8.062-1.211,9.172-5.167
	c3.263-11.687,10.855-21.466,21.363-27.533c3.912-2.26,8.109-3.919,12.453-4.941c-5.752,15.795-4.43,33.717,4.168,48.613
	c8.602,14.897,23.461,24.998,40.023,27.914c-3.063,3.254-6.6,6.061-10.517,8.323c-3.564,2.055-7.358,3.623-11.277,4.66
	c-3.978,1.047-6.347,5.121-5.298,9.094c0.885,3.336,3.895,5.545,7.191,5.545c0.626,0,1.271-0.082,1.902-0.25
	c5.194-1.373,10.211-3.445,14.918-6.16c10.02-5.783,18.152-14.252,23.516-24.485C227.407,88.21,227.262,85.312,225.771,83.055z"/>
</svg>
