<?xml version="1.0" encoding="utf-8"?>
<!-- Generator: Adobe Illustrator 15.1.0, SVG Export Plug-In  -->
<!DOCTYPE svg PUBLIC "-//W3C//DTD SVG 1.1 Basic//EN" "http://www.w3.org/Graphics/SVG/1.1/DTD/svg11-basic.dtd" [
	<!ENTITY ns_flows "http://ns.adobe.com/Flows/1.0/">
]>
<svg version="1.1" baseProfile="basic"
	 xmlns="http://www.w3.org/2000/svg" xmlns:xlink="http://www.w3.org/1999/xlink" xmlns:a="http://ns.adobe.com/AdobeSVGViewerExtensions/3.0/"
	 x="0px" y="0px" width="300px" height="300px" viewBox="-25.813 -49.875 300 300"
	 overflow="visible" enable-background="new -25.813 -49.875 300 300" xml:space="preserve">
<defs>
</defs>
<path fill="#AFA276" stroke="#FFFFFF" stroke-width="8.1772" stroke-miterlimit="10" d="M143.905,100.179h-3.087
	c-1.038-4.251-2.731-9.375-5.473-14.557c-8.939-16.865-24.953-26.156-45.098-26.156c-20.199,0-36.133,9.331-44.858,26.267
	c-2.827,5.486-4.472,10.901-5.431,15.296c-21.262,3.872-35.871,20.663-35.871,42.751c0,22.254,15.657,39.604,37.532,42.994
	c1.124,0.39,2.327,0.602,3.583,0.602h98.702c25.905,0,45.444-18.743,45.444-43.596C189.35,118.518,170.237,100.179,143.905,100.179z
	 M143.905,165.57H49.532c-16.237,0-23.638-11.297-23.638-21.79c0-13.037,9.503-21.795,23.638-21.795
	c5.845,0,10.653-4.672,10.898-10.509c0-0.086,0.394-8.426,4.631-16.292c5.036-9.359,13.277-13.911,25.188-13.911
	c11.967,0,20.32,4.586,25.537,14.023c4.365,7.894,4.882,16.252,4.882,16.278c0.267,5.823,5.062,10.41,10.893,10.41h12.346
	c14.142,0,23.638,8.758,23.638,21.795C167.543,154.273,160.145,165.57,143.905,165.57z"/>
<path fill="#AFA276" stroke="#FFFFFF" stroke-width="5.4515" stroke-miterlimit="10" d="M203.292,85.145
	c0-23.491-19.111-42.606-42.606-42.606c-8.537,0.003-16.773,2.521-23.821,7.283c-3.744,2.529-4.726,7.613-2.195,11.353
	c2.529,3.742,7.614,4.727,11.352,2.196c4.332-2.928,9.405-4.475,14.665-4.478c14.477,0,26.252,11.776,26.252,26.251
	c0,4.275-0.994,8.353-2.954,12.117c-2.087,4.004-0.532,8.944,3.472,11.03c1.208,0.628,2.501,0.927,3.774,0.927
	c2.949,0,5.802-1.602,7.262-4.4C201.632,98.784,203.292,91.98,203.292,85.145z"/>
<path fill="#AFA276" stroke="#FFFFFF" stroke-width="5.4515" stroke-miterlimit="10" d="M160.686,34.663
	c4.521,0,8.179-3.663,8.179-8.177V10.903c0-4.514-3.658-8.177-8.179-8.177c-4.514,0-8.176,3.663-8.176,8.177v15.583
	C152.51,31,156.172,34.663,160.686,34.663z"/>
<path fill="#AFA276" stroke="#FFFFFF" stroke-width="5.4515" stroke-miterlimit="10" d="M234.936,76.968h-15.581
	c-4.521,0-8.177,3.663-8.177,8.177c0,4.514,3.656,8.178,8.177,8.178h15.581c4.515,0,8.179-3.664,8.179-8.178
	C243.114,80.63,239.45,76.968,234.936,76.968z"/>
<path fill="#AFA276" stroke="#FFFFFF" stroke-width="5.4515" stroke-miterlimit="10" d="M202.941,51.984
	c2.093,0,4.189-0.799,5.787-2.396l11.015-11.018c3.189-3.195,3.189-8.375-0.007-11.566c-3.188-3.194-8.369-3.192-11.562,0.002
	L197.16,38.025c-3.194,3.194-3.194,8.371,0,11.565C198.757,51.188,200.849,51.984,202.941,51.984z"/>
<path fill="#AFA276" stroke="#FFFFFF" stroke-width="5.4515" stroke-miterlimit="10" d="M206.001,120.973
	c-3.193-3.192-8.373-3.192-11.567-0.001c-3.195,3.19-3.195,8.371,0,11.565l11.016,11.016c1.597,1.599,3.688,2.397,5.781,2.397
	s4.186-0.799,5.781-2.394c3.194-3.193,3.194-8.372,0.006-11.566L206.001,120.973z"/>
<path fill="#AFA276" stroke="#FFFFFF" stroke-width="5.4515" stroke-miterlimit="10" d="M113.566,49.585
	c1.594,1.6,3.685,2.399,5.781,2.399c2.091,0,4.184-0.796,5.78-2.394c3.194-3.194,3.194-8.369,0.004-11.563l-11.014-11.021
	c-3.188-3.194-8.369-3.199-11.565-0.005c-3.192,3.194-3.192,8.372-0.003,11.565L113.566,49.585z"/>
</svg>
