<?xml version="1.0" encoding="utf-8"?>
<!-- Generator: Adobe Illustrator 15.1.0, SVG Export Plug-In  -->
<!DOCTYPE svg PUBLIC "-//W3C//DTD SVG 1.1 Basic//EN" "http://www.w3.org/Graphics/SVG/1.1/DTD/svg11-basic.dtd" [
	<!ENTITY ns_flows "http://ns.adobe.com/Flows/1.0/">
]>
<svg version="1.1" baseProfile="basic"
	 xmlns="http://www.w3.org/2000/svg" xmlns:xlink="http://www.w3.org/1999/xlink" xmlns:a="http://ns.adobe.com/AdobeSVGViewerExtensions/3.0/"
	 x="0px" y="0px" width="300px" height="300px" viewBox="-52.386 -67.092 300 300"
	 overflow="visible" enable-background="new -52.386 -67.092 300 300" xml:space="preserve">
<defs>
</defs>
<path fill="#FFFFFF" stroke="#393A4D" stroke-width="4.5921" stroke-miterlimit="10" d="M120.082,67.132h-2.601
	c-0.874-3.584-2.297-7.898-4.611-12.266c-7.53-14.206-21.019-22.032-37.988-22.032c-17.014,0-30.437,7.861-37.786,22.126
	c-2.382,4.624-3.767,9.184-4.575,12.884C14.602,71.109,2.296,85.254,2.296,103.859c0,11.876,5.641,22.975,15.085,29.687
	c4.135,2.943,9.871,1.974,12.805-2.161c2.941-4.135,1.972-9.869-2.162-12.808c-4.677-3.322-7.36-8.686-7.36-14.718
	c0-10.978,8.005-18.359,19.92-18.359c4.964,0,9.027-3.942,9.18-8.907c0.076-2.595,1.453-25.391,25.117-25.391
	c10.081,0,17.118,3.866,21.511,11.817c3.679,6.651,4.114,13.691,4.118,13.709c0.219,4.91,4.265,8.771,9.176,8.771h10.395
	c11.91,0,19.915,7.382,19.915,18.359c0,9.108-5.888,16.137-15.005,17.906c-4.981,0.965-8.233,5.785-7.269,10.765
	c0.852,4.39,4.694,7.439,9.01,7.439c0.578,0,1.164-0.059,1.757-0.172c17.593-3.412,29.875-18.188,29.875-35.938
	C158.365,82.582,142.265,67.132,120.082,67.132z"/>
<path fill="#FFFFFF" stroke="#393A4D" stroke-width="4.5921" stroke-miterlimit="10" d="M197.161,61.407
	c-1.385-2.09-3.811-3.265-6.296-3.067c-11.046,0.883-21.801-4.754-27.342-14.355c-5.543-9.605-5.06-21.714,1.243-30.857
	c1.421-2.063,1.607-4.74,0.487-6.987c-1.12-2.242-3.372-3.7-5.88-3.803c-8.507-0.368-16.968,1.726-24.382,6.004
	c-12.262,7.082-20.351,19.203-22.188,33.257c-0.494,3.771,2.165,7.229,5.937,7.723c3.794,0.502,7.229-2.162,7.723-5.933
	c1.276-9.772,6.897-18.194,15.417-23.118c1.82-1.05,3.727-1.906,5.694-2.57c-3.143,10.979-1.841,23.023,4.02,33.172
	s15.642,17.297,26.72,20.063c-1.558,1.373-3.257,2.597-5.077,3.646c-1.843,1.067-3.794,1.942-5.795,2.61
	c-3.609,1.201-5.564,5.099-4.364,8.708c0.965,2.891,3.651,4.718,6.54,4.718c0.717,0,1.452-0.116,2.175-0.354
	c2.878-0.959,5.687-2.22,8.333-3.753c7.412-4.279,13.426-10.539,17.391-18.109C198.676,66.183,198.542,63.501,197.161,61.407z"/>
<path fill="#FFFFFF" stroke="#393A4D" stroke-width="4.5921" stroke-miterlimit="10" d="M59.049,98.899
	c-4.287-1.16-8.695,1.382-9.853,5.664l-7.785,28.886c-1.156,4.286,1.381,8.694,5.665,9.851c0.704,0.189,1.404,0.279,2.099,0.279
	c3.543,0,6.785-2.358,7.753-5.946l7.785-28.885C65.871,104.466,63.332,100.054,59.049,98.899z"/>
<path fill="#FFFFFF" stroke="#393A4D" stroke-width="4.5921" stroke-miterlimit="10" d="M38.188,149.419
	c-1.494,1.492-2.364,3.559-2.364,5.674c0,2.11,0.871,4.177,2.364,5.692c1.492,1.494,3.561,2.341,5.672,2.341
	c2.113,0,4.202-0.847,5.691-2.341c1.494-1.516,2.346-3.582,2.346-5.692c0-2.115-0.852-4.182-2.346-5.674
	C46.568,146.413,41.173,146.413,38.188,149.419z"/>
<path fill="#FFFFFF" stroke="#393A4D" stroke-width="4.5921" stroke-miterlimit="10" d="M107.575,121.675H97.394l12.623-17.606
	c0.755-1.049,0.854-2.431,0.265-3.58c-0.591-1.147-1.77-1.869-3.062-1.869H82.206c-1.426,0-2.708,0.879-3.216,2.211l-13.92,36.325
	c-0.408,1.063-0.265,2.256,0.377,3.188c0.646,0.932,1.704,1.488,2.839,1.488h0.004l7.422-0.015l-9.561,25.149
	c-0.592,1.554,0.014,3.311,1.436,4.173c0.555,0.334,1.169,0.496,1.78,0.496c0.959,0,1.906-0.399,2.578-1.16l38.209-43.07
	c0.896-1.013,1.12-2.461,0.563-3.699C110.162,122.472,108.932,121.675,107.575,121.675z"/>
</svg>
