<?xml version="1.0" encoding="utf-8"?>
<!-- Generator: Adobe Illustrator 15.1.0, SVG Export Plug-In  -->
<!DOCTYPE svg PUBLIC "-//W3C//DTD SVG 1.1 Basic//EN" "http://www.w3.org/Graphics/SVG/1.1/DTD/svg11-basic.dtd" [
	<!ENTITY ns_flows "http://ns.adobe.com/Flows/1.0/">
]>
<svg version="1.1" baseProfile="basic"
	 xmlns="http://www.w3.org/2000/svg" xmlns:xlink="http://www.w3.org/1999/xlink" xmlns:a="http://ns.adobe.com/AdobeSVGViewerExtensions/3.0/"
	 x="0px" y="0px" width="300px" height="300px" viewBox="-30.405 -38.922 300 300"
	 overflow="visible" enable-background="new -30.405 -38.922 300 300" xml:space="preserve">
<defs>
</defs>
<path fill="#FFFFFF" stroke="#B1C5C1" stroke-width="2.5321" stroke-miterlimit="10" d="M62.19,135.681
	c-4.718-1.28-9.589,1.525-10.861,6.246l-8.589,31.861c-1.275,4.721,1.523,9.588,6.251,10.859c0.771,0.213,1.547,0.311,2.309,0.311
	c3.908,0,7.487-2.605,8.553-6.557l8.59-31.859C69.717,141.82,66.918,136.953,62.19,135.681z"/>
<path fill="#FFFFFF" stroke="#B1C5C1" stroke-width="2.5321" stroke-miterlimit="10" d="M39.168,191.394
	c-1.641,1.648-2.581,3.922-2.581,6.252c0,2.328,0.94,4.607,2.581,6.279c1.646,1.646,3.951,2.582,6.281,2.582
	c2.33,0,4.609-0.936,6.256-2.582c1.648-1.672,2.607-3.951,2.607-6.279c0-2.33-0.959-4.604-2.607-6.252
	C48.388,188.076,42.488,188.076,39.168,191.394z"/>
<path fill="#FFFFFF" stroke="#B1C5C1" stroke-width="2.5321" stroke-miterlimit="10" d="M62.541,210.89
	c-1.646,1.646-2.581,3.951-2.581,6.279c0,2.33,0.935,4.609,2.581,6.258c1.672,1.641,3.951,2.605,6.281,2.605
	c2.329,0,4.609-0.965,6.256-2.605c1.643-1.648,2.607-3.928,2.607-6.258c0-2.328-0.965-4.633-2.607-6.279
	C71.785,207.601,65.861,207.601,62.541,210.89z"/>
<path fill="#FFFFFF" stroke="#B1C5C1" stroke-width="2.5321" stroke-miterlimit="10" d="M96.271,191.394
	c-1.646,1.648-2.581,3.922-2.581,6.252c0,2.328,0.935,4.633,2.581,6.279s3.927,2.582,6.256,2.582c2.354,0,4.635-0.936,6.276-2.582
	c1.646-1.672,2.587-3.951,2.587-6.279c0-2.33-0.94-4.604-2.587-6.252C105.489,188.101,99.563,188.101,96.271,191.394z"/>
<path fill="#FFFFFF" stroke="#B1C5C1" stroke-width="2.5321" stroke-miterlimit="10" d="M85.569,155.193
	c-4.714-1.281-9.591,1.521-10.867,6.246l-8.59,31.859c-1.276,4.727,1.523,9.59,6.252,10.865c0.771,0.209,1.547,0.307,2.309,0.307
	c3.907,0,7.487-2.602,8.551-6.557l8.591-31.861C93.09,161.33,90.291,156.464,85.569,155.193z"/>
<path fill="#FFFFFF" stroke="#B1C5C1" stroke-width="2.5321" stroke-miterlimit="10" d="M119.288,135.681
	c-4.733-1.28-9.59,1.525-10.867,6.246l-8.585,31.861c-1.275,4.721,1.523,9.588,6.247,10.859c0.776,0.213,1.547,0.311,2.313,0.311
	c3.907,0,7.482-2.605,8.552-6.557l8.586-31.859C126.809,141.82,124.01,136.953,119.288,135.681z"/>
<path fill="#FFFFFF" stroke="#B1C5C1" stroke-width="2.5321" stroke-miterlimit="10" d="M186.69,82.423
	c0-21.825-17.754-39.58-39.58-39.58c-7.932,0.002-15.582,2.341-22.131,6.766c-3.476,2.349-4.387,7.07-2.037,10.546
	c2.338,3.474,7.062,4.392,10.544,2.04c4.025-2.72,8.738-4.157,13.624-4.16c13.448,0,24.387,10.94,24.387,24.387
	c0,3.974-0.918,7.759-2.743,11.254c-1.939,3.719-0.496,8.308,3.225,10.247c1.121,0.586,2.323,0.863,3.505,0.863
	c2.74,0,5.386-1.489,6.741-4.087C185.148,95.096,186.69,88.775,186.69,82.423z"/>
<path fill="#FFFFFF" stroke="#B1C5C1" stroke-width="2.5321" stroke-miterlimit="10" d="M147.11,30.932c4.2,0,7.598-3.4,7.598-7.596
	V8.862c0-4.196-3.397-7.596-7.598-7.596c-4.193,0-7.595,3.4-7.595,7.596v14.474C139.516,27.532,142.917,30.932,147.11,30.932z"/>
<path fill="#FFFFFF" stroke="#B1C5C1" stroke-width="2.5321" stroke-miterlimit="10" d="M220.672,74.827h-14.477
	c-4.193,0-7.595,3.4-7.595,7.596c0,4.196,3.401,7.597,7.595,7.597h14.477c4.198,0,7.597-3.401,7.597-7.597
	C228.269,78.227,224.87,74.827,220.672,74.827z"/>
<path fill="#FFFFFF" stroke="#B1C5C1" stroke-width="2.5321" stroke-miterlimit="10" d="M188.896,48.242
	c1.943,0,3.887-0.742,5.371-2.226l10.231-10.237c2.968-2.968,2.968-7.778,0-10.745c-2.967-2.962-7.779-2.965-10.746,0.003
	l-10.232,10.237c-2.963,2.967-2.963,7.777,0.004,10.744C185.009,47.5,186.953,48.242,188.896,48.242z"/>
<path fill="#FFFFFF" stroke="#B1C5C1" stroke-width="2.5321" stroke-miterlimit="10" d="M194.268,118.83
	c-2.968-2.967-7.775-2.964-10.743-0.002c-2.967,2.967-2.967,7.776-0.004,10.744l10.232,10.236c1.484,1.484,3.432,2.227,5.375,2.227
	s3.889-0.742,5.371-2.223c2.968-2.967,2.968-7.777,0-10.744L194.268,118.83z"/>
<path fill="#FFFFFF" stroke="#B1C5C1" stroke-width="2.5321" stroke-miterlimit="10" d="M99.96,46.017
	c1.484,1.483,3.428,2.226,5.371,2.226s3.887-0.742,5.37-2.224c2.969-2.967,2.969-7.777,0.006-10.744l-10.232-10.237
	c-2.967-2.968-7.779-2.965-10.747-0.003c-2.967,2.967-2.967,7.777,0,10.745L99.96,46.017z"/>
<path fill="#FFFFFF" stroke="#B1C5C1" stroke-width="5.0643" stroke-miterlimit="10" d="M132.423,93.209h-2.863
	c-0.965-3.951-2.533-8.709-5.085-13.526c-8.303-15.668-23.184-24.298-41.899-24.298c-18.763,0-33.56,8.669-41.665,24.401
	c-2.626,5.099-4.154,10.129-5.045,14.209c-19.762,3.601-33.333,19.198-33.333,39.718c0,13.096,6.216,25.336,16.631,32.738
	c4.565,3.246,10.886,2.176,14.125-2.383c3.239-4.561,2.171-10.885-2.388-14.125c-5.153-3.664-8.112-9.578-8.112-16.23
	c0-12.107,8.829-20.248,21.963-20.248c5.475,0,9.962-4.346,10.124-9.821c0.089-2.863,1.603-28.002,27.699-28.002
	c11.123,0,18.884,4.263,23.73,13.031c4.055,7.334,4.534,15.1,4.534,15.119c0.247,5.415,4.703,9.674,10.12,9.674h11.463
	c13.141,0,21.968,8.141,21.968,20.248c0,10.045-6.497,17.793-16.553,19.748c-5.489,1.062-9.08,6.379-8.012,11.869
	c0.939,4.84,5.178,8.203,9.931,8.203c0.639,0,1.291-0.064,1.938-0.188c19.401-3.764,32.953-20.059,32.953-39.633
	C174.648,110.248,156.888,93.209,132.423,93.209z"/>
</svg>
