<?xml version="1.0" encoding="utf-8"?>
<!-- Generator: Adobe Illustrator 15.1.0, SVG Export Plug-In  -->
<!DOCTYPE svg PUBLIC "-//W3C//DTD SVG 1.1 Basic//EN" "http://www.w3.org/Graphics/SVG/1.1/DTD/svg11-basic.dtd" [
	<!ENTITY ns_flows "http://ns.adobe.com/Flows/1.0/">
]>
<svg version="1.1" baseProfile="basic"
	 xmlns="http://www.w3.org/2000/svg" xmlns:xlink="http://www.w3.org/1999/xlink" xmlns:a="http://ns.adobe.com/AdobeSVGViewerExtensions/3.0/"
	 x="0px" y="0px" width="300px" height="300px" viewBox="-37.264 -42.863 300 300"
	 overflow="visible" enable-background="new -37.264 -42.863 300 300" xml:space="preserve">
<defs>
</defs>
<path fill="#AFA276" stroke="#FFFFFF" stroke-width="4.6115" stroke-miterlimit="10" d="M102.369,51.644
	c-27.97,0-50.726,22.756-50.726,50.727c0,27.971,22.756,50.729,50.726,50.729c27.972,0,50.729-22.758,50.729-50.729
	C153.098,74.4,130.341,51.644,102.369,51.644z M102.369,134.65c-17.8,0-32.28-14.479-32.28-32.279c0-17.8,14.48-32.28,32.28-32.28
	c17.799,0,32.282,14.48,32.282,32.28C134.651,120.171,120.168,134.65,102.369,134.65z"/>
<path fill="#AFA276" stroke="#FFFFFF" stroke-width="4.6115" stroke-miterlimit="10" d="M102.369,39.537
	c5.095,0,9.226-4.129,9.226-9.223V11.529c0-5.094-4.131-9.223-9.226-9.223c-5.093,0-9.223,4.129-9.223,9.223v18.785
	C93.146,35.407,97.276,39.537,102.369,39.537z"/>
<path fill="#AFA276" stroke="#FFFFFF" stroke-width="4.6115" stroke-miterlimit="10" d="M193.214,93.148h-18.783
	c-5.093,0-9.224,4.129-9.224,9.222s4.131,9.224,9.224,9.224h18.783c5.093,0,9.224-4.131,9.224-9.224S198.307,93.148,193.214,93.148z
	"/>
<path fill="#AFA276" stroke="#FFFFFF" stroke-width="4.6115" stroke-miterlimit="10" d="M102.369,165.205
	c-5.093,0-9.223,4.131-9.223,9.223v18.783c0,5.094,4.129,9.225,9.223,9.225c5.095,0,9.226-4.131,9.226-9.225v-18.783
	C111.595,169.335,107.464,165.205,102.369,165.205z"/>
<path fill="#AFA276" stroke="#FFFFFF" stroke-width="4.6115" stroke-miterlimit="10" d="M39.536,102.371
	c0-5.093-4.13-9.222-9.223-9.222H11.528c-5.093,0-9.223,4.129-9.223,9.222s4.129,9.224,9.223,9.224h18.784
	C35.406,111.594,39.536,107.463,39.536,102.371z"/>
<path fill="#AFA276" stroke="#FFFFFF" stroke-width="4.6115" stroke-miterlimit="10" d="M154.287,59.683
	c2.359,0,4.719-0.901,6.52-2.702l13.281-13.284c3.604-3.6,3.604-9.438,0-13.042c-3.603-3.601-9.444-3.603-13.042,0l-13.28,13.283
	c-3.604,3.601-3.604,9.442,0,13.044C149.566,58.782,151.926,59.683,154.287,59.683z"/>
<path fill="#AFA276" stroke="#FFFFFF" stroke-width="4.6115" stroke-miterlimit="10" d="M160.807,147.761
	c-3.602-3.604-9.438-3.602-13.041-0.002c-3.604,3.602-3.604,9.443-0.005,13.045l13.28,13.281c1.803,1.803,4.166,2.701,6.525,2.701
	c2.361,0,4.721-0.898,6.521-2.701c3.604-3.6,3.604-9.439,0-13.043L160.807,147.761z"/>
<path fill="#AFA276" stroke="#FFFFFF" stroke-width="4.6115" stroke-miterlimit="10" d="M43.172,147.759l-13.283,13.283
	c-3.603,3.604-3.603,9.441,0,13.043c1.799,1.803,4.161,2.701,6.521,2.701c2.36,0,4.721-0.898,6.521-2.701l13.283-13.279
	c3.602-3.604,3.602-9.445,0-13.047C52.616,144.16,46.771,144.16,43.172,147.759z"/>
<path fill="#AFA276" stroke="#FFFFFF" stroke-width="4.6115" stroke-miterlimit="10" d="M45.477,56.983
	c1.802,1.799,4.161,2.7,6.521,2.7c2.36,0,4.722-0.901,6.521-2.702c3.603-3.601,3.603-9.441,0-13.044L45.235,30.656
	c-3.602-3.601-9.443-3.603-13.042,0c-3.603,3.603-3.603,9.444,0,13.044L45.477,56.983z"/>
</svg>
